<?xml version="1.0" standalone="no"?><!DOCTYPE svg PUBLIC "-//W3C//DTD SVG 1.1//EN" "http://www.w3.org/Graphics/SVG/1.1/DTD/svg11.dtd"><svg t="1536285995194" class="icon" style="" viewBox="0 0 1024 1024" version="1.1" xmlns="http://www.w3.org/2000/svg" p-id="1043" xmlns:xlink="http://www.w3.org/1999/xlink" width="68" height="68"><defs><style type="text/css"></style></defs><path d="M885.44 70.88h-746.88c-11.52 0-21.12 6.24-21.12 13.44v544.8c0 7.68 9.6 13.44 21.12 13.44h145.92c75.84 43.2 119.040 60 119.040 113.28 0 22.56-7.68 59.040-22.56 80.16h-110.4c-7.68 0-13.44 6.24-13.44 13.44l-76.8 89.76c0 7.68 6.24 13.44 13.44 13.44h636.48c7.68 0 13.44-6.24 13.44-13.44l-76.8-89.76c0-7.68-6.24-13.44-13.44-13.44h-110.4c-14.4-21.12-22.56-57.6-22.56-80.16 0-53.28 43.2-70.080 119.040-113.28h145.92c11.52 0 21.12-6.24 21.12-13.44v-544.8c0-7.68-9.12-13.44-21.12-13.44zM847.52 583.040h-670.56v-452.64h670.56v452.64z" p-id="1044"></path><path d="M205.28 395.84l45.12-4.32c2.88 14.88 8.16 26.4 16.32 33.12 8.16 7.2 19.68 10.56 33.6 10.56 14.88 0 25.92-3.36 33.6-9.6 7.68-6.24 11.52-13.92 11.52-22.080 0-5.28-1.44-10.080-4.8-13.92-3.36-3.84-8.64-7.2-16.8-10.080-5.28-1.92-17.76-5.28-36.96-10.080-24.96-6.24-42.24-13.92-52.32-22.56-13.92-12.48-21.12-27.84-21.12-46.080 0-11.52 3.36-22.56 10.080-32.64 6.72-10.080 16.32-17.76 28.8-23.040 12.48-5.28 27.36-8.16 45.12-8.16 28.8 0 50.4 6.24 64.8 18.72 14.4 12.48 22.080 29.28 23.040 50.4l-46.080 1.92c-1.92-12-6.24-20.16-12.96-25.44s-16.32-7.68-29.28-7.68c-13.44 0-24 2.88-31.68 8.16-4.8 3.36-7.2 8.16-7.2 14.4 0 5.28 2.4 10.080 6.72 13.92 5.76 4.8 20.16 10.080 42.72 15.36s39.36 11.040 49.92 16.32c10.56 5.76 19.2 13.44 25.44 23.52 6.24 10.080 9.12 22.080 9.12 36.48 0 12.96-3.84 25.44-11.040 36.96-7.2 11.52-17.76 20.16-30.72 25.44-13.44 5.76-29.76 8.16-49.92 8.16-28.8 0-51.36-6.72-66.72-20.16-15.84-12.48-25.44-31.68-28.32-57.6zM490.88 470.72v-96.48l-84-132.96h54.24l53.76 90.72 52.8-90.72h53.28l-84.48 132.96v96h-45.6zM632.48 395.84l45.12-4.32c2.88 14.88 8.16 26.4 16.32 33.12 8.16 7.2 19.68 10.56 33.6 10.56 14.88 0 25.92-3.36 33.6-9.6 7.68-6.24 11.52-13.92 11.52-22.080 0-5.28-1.44-10.080-4.8-13.92-3.36-3.84-8.64-7.2-16.8-10.080-5.28-1.92-17.76-5.28-36.96-10.080-24.96-6.24-42.24-13.92-52.32-22.56-13.92-12.48-21.12-27.84-21.12-46.080 0-11.52 3.36-22.56 10.080-32.64 6.72-10.080 16.32-17.76 28.8-23.040 12.48-5.28 27.36-8.16 45.12-8.16 28.8 0 50.4 6.24 64.8 18.72 14.4 12.48 22.080 29.28 23.040 50.4l-46.080 1.92c-1.92-12-6.24-20.16-12.96-25.44s-16.32-7.68-29.28-7.68c-13.44 0-24 2.88-31.68 8.16-4.8 3.36-7.2 8.16-7.2 14.4 0 5.28 2.4 10.080 6.72 13.92 5.76 4.8 20.16 10.080 42.72 15.36s39.36 11.040 49.92 16.32c10.56 5.76 19.2 13.44 25.44 23.52 6.24 10.080 9.12 22.080 9.12 36.48 0 12.96-3.84 25.44-11.040 36.96-7.2 11.52-17.76 20.16-30.72 25.44-13.44 5.76-29.76 8.16-49.92 8.16-28.8 0-51.36-6.72-66.72-20.16-16.32-12.48-25.44-31.68-28.32-57.6z" p-id="1045"></path></svg>